# xmcd
#
# Track frame offsets: 
#        150
#        17350
#        33772
#        44015
#        62217
#        76800
#        87172
#        102275
#        120210
#        131530
#        148505
#        164897
#        182405
#        195785
#        210247
#        224502
#        241335
#        256247
#        269817
#        283262
#        284090
#        284862
#
# Disc length: 3806 seconds
#
# Revision: 3
# Processed by: cddbd v1.5.2PL0 Copyright (c) Steve Scherf et al.
# Submitted via: ExactAudioCopy v1.3
#
DISCID=4b0edc16
DTITLE=Various Artist - CDXMAS Vol. 7 1995
DYEAR=1995
DGENRE=Christmas
TTITLE0=Vince Vance and The Valiants - All I Want For Christmas Is You 
TTITLE1=Doug Wayne - Almost Time For Christmas
TTITLE2=Patti Page - Boogie Woogie Santa Claus
TTITLE3=Sammy Kershaw - Daddy Stuff
TTITLE4=Vassar Clements, Norman and Nancy Blake, Roy Huskey Jr. and Friend
TTITLE4=s - God Rest Ye Merry Gentlemen
TTITLE5=Little Texas - Here Comes Santa Claus
TTITLE6=Joe Diffie - Leroy The Redneck Reindeer
TTITLE7=Tractors - Santa Claus Ss Comin' (In A Boogie Woogie Choo Choo
TTITLE7=Train)
TTITLE8=Jeff Carson - Santa Got Lost In Texas
TTITLE9=Toby Keith - Santa, I'm Right Here
TTITLE10=Lisa Brokop - Shake Me, I Rattle
TTITLE11=Fox Brothers - The Greatest Gift
TTITLE12=Kathy Mattea - The Star
TTITLE13=Collin Raye - What If Jesus Comes Back Like That
TTITLE14=Moffats - When God Made You
TTITLE15=Lari White - White Christmas
TTITLE16=Joe Diffie - Wrap Me In Your Love
TTITLE17=You're A Mean One, Mr. Grinch
TTITLE18=Reddmann - Chasin' That Neon Reindeer
TTITLE19=Clint Black - Liners
TTITLE20=Clint Black - Liners
TTITLE21=Clint Black - Liners
EXTD=
EXTT0=
EXTT1=
EXTT2=
EXTT3=
EXTT4=
EXTT5=
EXTT6=
EXTT7=
EXTT8=
EXTT9=
EXTT10=
EXTT11=
EXTT12=
EXTT13=
EXTT14=
EXTT15=
EXTT16=
EXTT17=
EXTT18=
EXTT19=
EXTT20=
EXTT21=
PLAYORDER=
